<svg width="59" height="29" viewBox="0 0 59 29" fill="none" xmlns="http://www.w3.org/2000/svg">
<circle cx="26" cy="9.5" r="2" stroke="white"/>
<path d="M7.67539 14.584L8.32578 8.20312H14.8824V9.70605H9.70566L9.31895 13.1953C9.9459 12.8262 10.6578 12.6416 11.4547 12.6416C12.6207 12.6416 13.5465 13.0283 14.232 13.8018C14.9176 14.5693 15.2604 15.6094 15.2604 16.9219C15.2604 18.2402 14.9029 19.2803 14.1881 20.042C13.4791 20.7979 12.4859 21.1758 11.2086 21.1758C10.0777 21.1758 9.15488 20.8623 8.44004 20.2354C7.7252 19.6084 7.31797 18.7412 7.21836 17.6338H8.75645C8.85605 18.3662 9.1168 18.9199 9.53867 19.2949C9.96055 19.6641 10.5172 19.8486 11.2086 19.8486C11.9645 19.8486 12.5563 19.5908 12.984 19.0752C13.4176 18.5596 13.6344 17.8477 13.6344 16.9395C13.6344 16.084 13.4 15.3984 12.9313 14.8828C12.4684 14.3613 11.8502 14.1006 11.0768 14.1006C10.3678 14.1006 9.81113 14.2559 9.40684 14.5664L8.97617 14.918L7.67539 14.584ZM27.7707 16.9395C27.6125 18.293 27.1115 19.3389 26.2678 20.0771C25.4299 20.8096 24.3137 21.1758 22.9191 21.1758C21.4074 21.1758 20.1945 20.6338 19.2805 19.5498C18.3723 18.4658 17.9182 17.0156 17.9182 15.1992V13.9688C17.9182 12.7793 18.1291 11.7334 18.551 10.8311C18.9787 9.92871 19.5822 9.2373 20.3615 8.75684C21.1408 8.27051 22.0432 8.02734 23.0686 8.02734C24.4279 8.02734 25.5178 8.4082 26.3381 9.16992C27.1584 9.92578 27.6359 10.9746 27.7707 12.3164H26.0744C25.9279 11.2969 25.6086 10.5586 25.1164 10.1016C24.6301 9.64453 23.9475 9.41602 23.0686 9.41602C21.9904 9.41602 21.1437 9.81445 20.5285 10.6113C19.9191 11.4082 19.6145 12.542 19.6145 14.0127V15.252C19.6145 16.6406 19.9045 17.7451 20.4846 18.5654C21.0646 19.3857 21.8762 19.7959 22.9191 19.7959C23.8566 19.7959 24.5744 19.585 25.0725 19.1631C25.5764 18.7354 25.9104 17.9941 26.0744 16.9395H27.7707Z" fill="white"/>
<path d="M45.45 8.7C49.0242 8.7 51.0513 10.9808 51.3457 13.7373H51.4356C53.7353 13.7373 55.6 15.5309 55.6 17.7436C55.6 19.9563 53.7353 21.75 51.4356 21.75H50.4293L50.4046 21.8094L48.2514 25.7302C48.165 25.8895 48.022 26.0106 47.8507 26.0698C47.6795 26.1289 47.4922 26.1217 47.326 26.0497C47.1597 25.9776 47.0264 25.846 46.9524 25.6806C46.8784 25.5152 46.869 25.328 46.9261 25.156L46.9783 25.0371L48.785 21.75H46.0967L46.0706 21.8094L43.9173 25.7302C43.8309 25.8895 43.688 26.0106 43.5167 26.0698C43.3454 26.1289 43.1582 26.1217 42.9919 26.0497C42.8256 25.9776 42.6924 25.846 42.6184 25.6806C42.5444 25.5152 42.535 25.328 42.592 25.156L42.6442 25.0371L44.4524 21.75H41.738L39.5688 25.7302C39.4824 25.8895 39.3394 26.0106 39.1681 26.0698C38.9968 26.1289 38.8096 26.1217 38.6434 26.0497C38.4771 25.9776 38.3438 25.846 38.2698 25.6806C38.1958 25.5152 38.1864 25.328 38.2435 25.156L38.2957 25.0371L40.0879 21.75H39.4644C37.1647 21.75 35.3 19.9563 35.3 17.7436C35.3 15.5309 37.1647 13.7373 39.4644 13.7373H39.5543C39.8515 10.962 41.8757 8.7 45.45 8.7ZM45.45 10.15C43.0575 10.15 40.9738 11.9915 40.9738 14.5362C40.9738 14.9393 40.6055 15.2554 40.1836 15.2554H39.3861C37.9303 15.254 36.75 16.385 36.75 17.777C36.75 19.169 37.9303 20.3 39.3861 20.3H51.5139C52.9697 20.3 54.15 19.169 54.15 17.777C54.15 16.385 52.9697 15.254 51.5139 15.254H50.7164C50.2959 15.2555 49.9261 14.9393 49.9261 14.5362C49.9261 11.9596 47.8425 10.15 45.45 10.15ZM35.0143 12.615C35.0702 12.7756 35.0679 12.9507 35.0077 13.1097C34.9475 13.2688 34.8334 13.4016 34.6852 13.485L34.5648 13.5372L33.4034 13.9374C33.232 13.9974 33.0443 13.9909 32.8775 13.9191C32.7107 13.8474 32.5769 13.7156 32.5025 13.55C32.4281 13.3843 32.4187 13.1968 32.4759 13.0244C32.5332 12.8521 32.6531 12.7076 32.8118 12.6193L32.9307 12.5671L34.0936 12.1669C34.2753 12.1046 34.4743 12.1169 34.647 12.2012C34.8196 12.2855 34.9517 12.4348 35.0143 12.6164V12.615ZM42.434 6.525C42.9168 6.7599 43.3417 7.06585 43.7013 7.424C43.1126 7.54435 42.5616 7.7285 42.0541 7.96775C41.3992 7.57357 40.628 7.4185 39.8716 7.52892C39.1153 7.63933 38.4206 8.00842 37.9057 8.57337C37.3909 9.13831 37.0877 9.86421 37.0477 10.6275C37.0078 11.3908 37.2336 12.1444 37.6867 12.76C37.2082 12.9021 36.7587 13.1094 36.3454 13.369C35.7845 12.4956 35.5246 11.4627 35.6055 10.4279C35.6865 9.39301 36.1037 8.41305 36.7937 7.63751C37.4836 6.86197 38.4083 6.33344 39.4267 6.13257C40.4451 5.9317 41.5013 6.06952 42.434 6.525ZM33.7296 6.7715L33.85 6.8179L34.9549 7.35585C35.1178 7.43503 35.2451 7.57231 35.3119 7.74067C35.3786 7.90903 35.38 8.09628 35.3156 8.26556C35.2512 8.43485 35.1258 8.57391 34.9641 8.65539C34.8023 8.73686 34.6159 8.75484 34.4416 8.7058L34.3198 8.6594L33.2149 8.12145C33.052 8.04227 32.9247 7.90499 32.8579 7.73663C32.7912 7.56827 32.7898 7.38102 32.8542 7.21174C32.9186 7.04245 33.044 6.90339 33.2057 6.82191C33.3675 6.74044 33.5539 6.72246 33.7282 6.7715H33.7296ZM43.9855 3.32775C44.1382 3.40224 44.2598 3.52796 44.3293 3.68299C44.3987 3.83802 44.4115 4.0125 44.3654 4.176L44.319 4.2978L43.781 5.4027C43.7019 5.56558 43.5646 5.69293 43.3962 5.75969C43.2279 5.82644 43.0406 5.82776 42.8713 5.7634C42.702 5.69903 42.563 5.57363 42.4815 5.41188C42.4 5.25013 42.3821 5.06374 42.4311 4.8894L42.4775 4.76615L43.0169 3.66125C43.1012 3.4887 43.2506 3.35667 43.4322 3.29415C43.6138 3.23162 43.8128 3.24371 43.9855 3.32775ZM38.49 3.28135L38.5436 3.40025L38.9438 4.56315C39.0027 4.73433 38.9953 4.92133 38.9233 5.08737C38.8512 5.25342 38.7197 5.38651 38.5545 5.46048C38.3893 5.53445 38.2024 5.54395 38.0305 5.48711C37.8587 5.43026 37.7143 5.31119 37.6258 5.1533L37.5736 5.0344L37.1734 3.87295C37.1155 3.70217 37.1233 3.51595 37.1953 3.35062C37.2673 3.1853 37.3984 3.05274 37.5628 2.97883C37.7273 2.90492 37.9135 2.89496 38.0849 2.9509C38.2563 3.00684 38.4008 3.12465 38.49 3.28135Z" fill="white"/>
</svg>
