<svg width="69" height="27" viewBox="0 0 69 27" fill="none" xmlns="http://www.w3.org/2000/svg">
<circle cx="25.5" cy="8.5" r="2" stroke="white"/>
<path d="M9.44824 20H1.06348V18.8311L5.49316 13.9092C6.14941 13.165 6.60059 12.5615 6.84668 12.0986C7.09863 11.6299 7.22461 11.1465 7.22461 10.6484C7.22461 9.98047 7.02246 9.43262 6.61816 9.00488C6.21387 8.57715 5.6748 8.36328 5.00098 8.36328C4.19238 8.36328 3.5625 8.59473 3.11133 9.05762C2.66602 9.51465 2.44336 10.1533 2.44336 10.9736H0.817383C0.817383 9.7959 1.19531 8.84375 1.95117 8.11719C2.71289 7.39062 3.72949 7.02734 5.00098 7.02734C6.19043 7.02734 7.13086 7.34082 7.82227 7.96777C8.51367 8.58887 8.85938 9.41797 8.85938 10.4551C8.85938 11.7148 8.05664 13.2148 6.45117 14.9551L3.02344 18.6729H9.44824V20ZM20.4557 20H12.0709V18.8311L16.5006 13.9092C17.1568 13.165 17.608 12.5615 17.8541 12.0986C18.1061 11.6299 18.232 11.1465 18.232 10.6484C18.232 9.98047 18.0299 9.43262 17.6256 9.00488C17.2213 8.57715 16.6822 8.36328 16.0084 8.36328C15.1998 8.36328 14.5699 8.59473 14.1187 9.05762C13.6734 9.51465 13.4508 10.1533 13.4508 10.9736H11.8248C11.8248 9.7959 12.2027 8.84375 12.9586 8.11719C13.7203 7.39062 14.7369 7.02734 16.0084 7.02734C17.1979 7.02734 18.1383 7.34082 18.8297 7.96777C19.5211 8.58887 19.8668 9.41797 19.8668 10.4551C19.8668 11.7148 19.0641 13.2148 17.4586 14.9551L14.0309 18.6729H20.4557V20ZM38.2781 15.9395C38.1199 17.293 37.6189 18.3389 36.7752 19.0771C35.9373 19.8096 34.8211 20.1758 33.4266 20.1758C31.9148 20.1758 30.702 19.6338 29.7879 18.5498C28.8797 17.4658 28.4256 16.0156 28.4256 14.1992V12.9688C28.4256 11.7793 28.6365 10.7334 29.0584 9.83105C29.4861 8.92871 30.0896 8.2373 30.8689 7.75684C31.6482 7.27051 32.5506 7.02734 33.576 7.02734C34.9354 7.02734 36.0252 7.4082 36.8455 8.16992C37.6658 8.92578 38.1434 9.97461 38.2781 11.3164H36.5818C36.4354 10.2969 36.116 9.55859 35.6238 9.10156C35.1375 8.64453 34.4549 8.41602 33.576 8.41602C32.4979 8.41602 31.6512 8.81445 31.0359 9.61133C30.4266 10.4082 30.1219 11.542 30.1219 13.0127V14.252C30.1219 15.6406 30.4119 16.7451 30.992 17.5654C31.5721 18.3857 32.3836 18.7959 33.4266 18.7959C34.3641 18.7959 35.0818 18.585 35.5799 18.1631C36.0838 17.7354 36.4178 16.9941 36.5818 15.9395H38.2781Z" fill="white"/>
<path d="M56.8125 2.53125C56.8125 2.30747 56.7269 2.09286 56.5745 1.93463C56.4222 1.77639 56.2155 1.6875 56 1.6875C55.7845 1.6875 55.5778 1.77639 55.4255 1.93463C55.2731 2.09286 55.1875 2.30747 55.1875 2.53125V4.21875C55.1875 4.44253 55.2731 4.65714 55.4255 4.81537C55.5778 4.9736 55.7845 5.0625 56 5.0625C56.2155 5.0625 56.4222 4.9736 56.5745 4.81537C56.7269 4.65714 56.8125 4.44253 56.8125 4.21875V2.53125ZM49.1051 5.14687C48.9519 4.99318 48.7466 4.90813 48.5336 4.91006C48.3206 4.91198 48.1168 5.00071 47.9661 5.15715C47.8155 5.31359 47.7301 5.52521 47.7282 5.74644C47.7264 5.96767 47.8082 6.1808 47.9562 6.33994L49.1051 7.533C49.2584 7.6867 49.4636 7.77174 49.6766 7.76982C49.8897 7.7679 50.0935 7.67916 50.2441 7.52272C50.3947 7.36628 50.4802 7.15466 50.482 6.93343C50.4839 6.7122 50.402 6.49907 50.254 6.33994L49.1051 5.14687ZM64.0437 6.33994C64.1214 6.2621 64.1833 6.169 64.2258 6.06606C64.2684 5.96312 64.2908 5.8524 64.2918 5.74037C64.2927 5.62834 64.2721 5.51723 64.2313 5.41354C64.1904 5.30985 64.1301 5.21564 64.0538 5.13642C63.9775 5.05719 63.8868 4.99454 63.787 4.95212C63.6871 4.90969 63.5801 4.88835 63.4722 4.88932C63.3644 4.89029 63.2577 4.91357 63.1586 4.95779C63.0595 5.00201 62.9698 5.06629 62.8949 5.14687L61.746 6.33994C61.598 6.49907 61.5161 6.7122 61.518 6.93343C61.5198 7.15466 61.6053 7.36628 61.7559 7.52272C61.9065 7.67916 62.1103 7.7679 62.3234 7.76982C62.5364 7.77174 62.7416 7.6867 62.8949 7.533L64.0437 6.33994ZM45.4375 12.6562C45.222 12.6562 45.0153 12.7451 44.863 12.9034C44.7106 13.0616 44.625 13.2762 44.625 13.5C44.625 13.7238 44.7106 13.9384 44.863 14.0966C45.0153 14.2549 45.222 14.3438 45.4375 14.3438H47.0625C47.278 14.3438 47.4847 14.2549 47.637 14.0966C47.7894 13.9384 47.875 13.7238 47.875 13.5C47.875 13.2762 47.7894 13.0616 47.637 12.9034C47.4847 12.7451 47.278 12.6562 47.0625 12.6562H45.4375ZM64.9375 12.6562C64.722 12.6562 64.5153 12.7451 64.363 12.9034C64.2106 13.0616 64.125 13.2762 64.125 13.5C64.125 13.7238 64.2106 13.9384 64.363 14.0966C64.5153 14.2549 64.722 14.3438 64.9375 14.3438H66.5625C66.778 14.3438 66.9847 14.2549 67.137 14.0966C67.2894 13.9384 67.375 13.7238 67.375 13.5C67.375 13.2762 67.2894 13.0616 67.137 12.9034C66.9847 12.7451 66.778 12.6562 66.5625 12.6562H64.9375ZM50.254 20.6601C50.3316 20.5822 50.3935 20.4891 50.4361 20.3862C50.4787 20.2832 50.5011 20.1725 50.502 20.0605C50.503 19.9485 50.4824 19.8374 50.4415 19.7337C50.4007 19.63 50.3404 19.5358 50.2641 19.4565C50.1878 19.3773 50.0971 19.3147 49.9972 19.2722C49.8974 19.2298 49.7904 19.2085 49.6825 19.2094C49.5746 19.2104 49.468 19.2337 49.3689 19.2779C49.2697 19.3221 49.1801 19.3864 49.1051 19.467L47.9562 20.6601C47.8786 20.7379 47.8167 20.831 47.7742 20.9339C47.7316 21.0369 47.7092 21.1476 47.7082 21.2596C47.7073 21.3717 47.7279 21.4828 47.7687 21.5865C47.8096 21.6902 47.8699 21.7844 47.9462 21.8636C48.0225 21.9428 48.1132 22.0055 48.213 22.0479C48.3129 22.0903 48.4199 22.1117 48.5278 22.1107C48.6356 22.1097 48.7423 22.0864 48.8414 22.0422C48.9405 21.998 49.0302 21.9337 49.1051 21.8531L50.254 20.6601ZM62.8949 19.467C62.7416 19.3133 62.5364 19.2283 62.3234 19.2302C62.1103 19.2321 61.9065 19.3208 61.7559 19.4773C61.6053 19.6337 61.5198 19.8453 61.518 20.0666C61.5161 20.2878 61.598 20.5009 61.746 20.6601L62.8949 21.8531C62.9698 21.9337 63.0595 21.998 63.1586 22.0422C63.2577 22.0864 63.3644 22.1097 63.4722 22.1107C63.5801 22.1117 63.6871 22.0903 63.787 22.0479C63.8868 22.0055 63.9775 21.9428 64.0538 21.8636C64.1301 21.7844 64.1904 21.6902 64.2313 21.5865C64.2721 21.4828 64.2927 21.3717 64.2918 21.2596C64.2908 21.1476 64.2684 21.0369 64.2258 20.9339C64.1833 20.831 64.1214 20.7379 64.0437 20.6601L62.8949 19.467ZM56.8125 22.7812C56.8125 22.5575 56.7269 22.3429 56.5745 22.1846C56.4222 22.0264 56.2155 21.9375 56 21.9375C55.7845 21.9375 55.5778 22.0264 55.4255 22.1846C55.2731 22.3429 55.1875 22.5575 55.1875 22.7812V24.4688C55.1875 24.6925 55.2731 24.9071 55.4255 25.0654C55.5778 25.2236 55.7845 25.3125 56 25.3125C56.2155 25.3125 56.4222 25.2236 56.5745 25.0654C56.7269 24.9071 56.8125 24.6925 56.8125 24.4688V22.7812ZM56 6.75C54.2761 6.75 52.6228 7.46116 51.4038 8.72703C50.1848 9.9929 49.5 11.7098 49.5 13.5C49.5 15.2902 50.1848 17.0071 51.4038 18.273C52.6228 19.5388 54.2761 20.25 56 20.25C57.7239 20.25 59.3772 19.5388 60.5962 18.273C61.8152 17.0071 62.5 15.2902 62.5 13.5C62.5 11.7098 61.8152 9.9929 60.5962 8.72703C59.3772 7.46116 57.7239 6.75 56 6.75ZM51.125 13.5C51.125 12.1573 51.6386 10.8697 52.5529 9.92027C53.4671 8.97087 54.7071 8.4375 56 8.4375C57.2929 8.4375 58.5329 8.97087 59.4471 9.92027C60.3614 10.8697 60.875 12.1573 60.875 13.5C60.875 14.8427 60.3614 16.1303 59.4471 17.0797C58.5329 18.0291 57.2929 18.5625 56 18.5625C54.7071 18.5625 53.4671 18.0291 52.5529 17.0797C51.6386 16.1303 51.125 14.8427 51.125 13.5Z" fill="white"/>
</svg>
