<svg width="69" height="27" viewBox="0 0 69 27" fill="none" xmlns="http://www.w3.org/2000/svg">
<circle cx="26.125" cy="6.5" r="2" stroke="white"/>
<path d="M4.05273 10.8105H5.27441C6.04199 10.7988 6.64551 10.5967 7.08496 10.2041C7.52441 9.81152 7.74414 9.28125 7.74414 8.61328C7.74414 7.11328 6.99707 6.36328 5.50293 6.36328C4.7998 6.36328 4.2373 6.56543 3.81543 6.96973C3.39941 7.36816 3.19141 7.89844 3.19141 8.56055H1.56543C1.56543 7.54688 1.93457 6.70605 2.67285 6.03809C3.41699 5.36426 4.36035 5.02734 5.50293 5.02734C6.70996 5.02734 7.65625 5.34668 8.3418 5.98535C9.02734 6.62402 9.37012 7.51172 9.37012 8.64844C9.37012 9.20508 9.18848 9.74414 8.8252 10.2656C8.46777 10.7871 7.97852 11.1768 7.35742 11.4346C8.06055 11.6572 8.60254 12.0264 8.9834 12.542C9.37012 13.0576 9.56348 13.6875 9.56348 14.4316C9.56348 15.5801 9.18848 16.4912 8.43848 17.165C7.68848 17.8389 6.71289 18.1758 5.51172 18.1758C4.31055 18.1758 3.33203 17.8506 2.57617 17.2002C1.82617 16.5498 1.45117 15.6914 1.45117 14.625H3.08594C3.08594 15.2988 3.30566 15.8379 3.74512 16.2422C4.18457 16.6465 4.77344 16.8486 5.51172 16.8486C6.29688 16.8486 6.89746 16.6436 7.31348 16.2334C7.72949 15.8232 7.9375 15.2344 7.9375 14.4668C7.9375 13.7227 7.70898 13.1514 7.25195 12.7529C6.79492 12.3545 6.13574 12.1494 5.27441 12.1377H4.05273V10.8105ZM15.0602 10.8105H16.2818C17.0494 10.7988 17.6529 10.5967 18.0924 10.2041C18.5318 9.81152 18.7516 9.28125 18.7516 8.61328C18.7516 7.11328 18.0045 6.36328 16.5104 6.36328C15.8072 6.36328 15.2447 6.56543 14.8229 6.96973C14.4068 7.36816 14.1988 7.89844 14.1988 8.56055H12.5729C12.5729 7.54688 12.942 6.70605 13.6803 6.03809C14.4244 5.36426 15.3678 5.02734 16.5104 5.02734C17.7174 5.02734 18.6637 5.34668 19.3492 5.98535C20.0348 6.62402 20.3775 7.51172 20.3775 8.64844C20.3775 9.20508 20.1959 9.74414 19.8326 10.2656C19.4752 10.7871 18.9859 11.1768 18.3648 11.4346C19.068 11.6572 19.61 12.0264 19.9908 12.542C20.3775 13.0576 20.5709 13.6875 20.5709 14.4316C20.5709 15.5801 20.1959 16.4912 19.4459 17.165C18.6959 17.8389 17.7203 18.1758 16.5191 18.1758C15.318 18.1758 14.3395 17.8506 13.5836 17.2002C12.8336 16.5498 12.4586 15.6914 12.4586 14.625H14.0934C14.0934 15.2988 14.3131 15.8379 14.7525 16.2422C15.192 16.6465 15.7809 16.8486 16.5191 16.8486C17.3043 16.8486 17.9049 16.6436 18.3209 16.2334C18.7369 15.8232 18.9449 15.2344 18.9449 14.4668C18.9449 13.7227 18.7164 13.1514 18.2594 12.7529C17.8023 12.3545 17.1432 12.1494 16.2818 12.1377H15.0602V10.8105ZM38.9031 13.9395C38.7449 15.293 38.2439 16.3389 37.4002 17.0771C36.5623 17.8096 35.4461 18.1758 34.0516 18.1758C32.5398 18.1758 31.327 17.6338 30.4129 16.5498C29.5047 15.4658 29.0506 14.0156 29.0506 12.1992V10.9688C29.0506 9.7793 29.2615 8.7334 29.6834 7.83105C30.1111 6.92871 30.7146 6.2373 31.4939 5.75684C32.2732 5.27051 33.1756 5.02734 34.201 5.02734C35.5604 5.02734 36.6502 5.4082 37.4705 6.16992C38.2908 6.92578 38.7684 7.97461 38.9031 9.31641H37.2068C37.0604 8.29688 36.741 7.55859 36.2488 7.10156C35.7625 6.64453 35.0799 6.41602 34.201 6.41602C33.1229 6.41602 32.2762 6.81445 31.6609 7.61133C31.0516 8.4082 30.7469 9.54199 30.7469 11.0127V12.252C30.7469 13.6406 31.0369 14.7451 31.617 15.5654C32.1971 16.3857 33.0086 16.7959 34.0516 16.7959C34.9891 16.7959 35.7068 16.585 36.2049 16.1631C36.7088 15.7354 37.0428 14.9941 37.2068 13.9395H38.9031Z" fill="white"/>
<path d="M56 22.5174C56.2984 22.5174 56.5845 22.636 56.7955 22.8469C57.0065 23.0579 57.125 23.3441 57.125 23.6424C57.125 23.9408 57.0065 24.2269 56.7955 24.4379C56.5845 24.6489 56.2984 24.7674 56 24.7674C55.7016 24.7674 55.4155 24.6489 55.2045 24.4379C54.9935 24.2269 54.875 23.9408 54.875 23.6424C54.875 23.3441 54.9935 23.0579 55.2045 22.8469C55.4155 22.636 55.7016 22.5174 56 22.5174ZM52.0625 21.3924C52.3609 21.3924 52.647 21.511 52.858 21.7219C53.069 21.9329 53.1875 22.2191 53.1875 22.5174C53.1875 22.8158 53.069 23.1019 52.858 23.3129C52.647 23.5239 52.3609 23.6424 52.0625 23.6424C51.7641 23.6424 51.478 23.5239 51.267 23.3129C51.056 23.1019 50.9375 22.8158 50.9375 22.5174C50.9375 22.2191 51.056 21.9329 51.267 21.7219C51.478 21.511 51.7641 21.3924 52.0625 21.3924ZM59.9375 21.3924C60.2359 21.3924 60.522 21.511 60.733 21.7219C60.944 21.9329 61.0625 22.2191 61.0625 22.5174C61.0625 22.8158 60.944 23.1019 60.733 23.3129C60.522 23.5239 60.2359 23.6424 59.9375 23.6424C59.6391 23.6424 59.353 23.5239 59.142 23.3129C58.931 23.1019 58.8125 22.8158 58.8125 22.5174C58.8125 22.2191 58.931 21.9329 59.142 21.7219C59.353 21.511 59.6391 21.3924 59.9375 21.3924ZM55.9994 6.75561C59.564 6.75561 61.5862 9.11474 61.8804 11.9644H61.9704C64.2642 11.9644 66.1239 13.8189 66.1239 16.1072C66.1239 18.3954 64.2642 20.25 61.9704 20.25H50.0285C47.7346 20.25 45.875 18.3954 45.875 16.1072C45.875 13.8189 47.7346 11.9644 50.0285 11.9644H50.1185C50.4144 9.09617 52.4349 6.75561 55.9994 6.75561ZM55.9994 8.15905C53.6026 8.15905 51.5135 10.0985 51.5135 12.7772C51.5135 13.2019 51.1445 13.5349 50.7215 13.5349H49.9227C48.4636 13.5349 47.2807 14.724 47.2807 16.1904C47.2807 17.6574 48.4636 18.8465 49.9227 18.8465H62.0761C63.5352 18.8465 64.7182 17.6574 64.7182 16.1904C64.7182 14.724 63.5352 13.5354 62.0761 13.5354H61.2774C60.8544 13.5354 60.4854 13.2019 60.4854 12.7772C60.4854 10.0642 58.3963 8.15905 55.9994 8.15905ZM46.2738 11.4204C46.34 11.5804 46.3445 11.7592 46.2866 11.9223C46.2286 12.0854 46.1122 12.2212 45.9599 12.3035L45.8953 12.3345L44.5947 12.8756C44.4293 12.9429 44.2444 12.9444 44.0779 12.8798C43.9114 12.8151 43.7759 12.6893 43.6992 12.528C43.6225 12.3667 43.6103 12.1822 43.6653 12.0123C43.7202 11.8423 43.838 11.6998 43.9946 11.6139L44.0592 11.583L45.3597 11.0419C45.5312 10.9709 45.7237 10.9709 45.8952 11.0419C46.0666 11.1129 46.2028 11.249 46.2738 11.4204ZM53.5863 5.99792L53.5514 6.00861C53.0317 6.17849 52.5479 6.40349 52.1058 6.67799C51.5017 6.42237 50.832 6.36538 50.1934 6.51525C49.5548 6.66513 48.9803 7.01411 48.553 7.51179C48.1257 8.00947 47.8676 8.6301 47.816 9.28404C47.7645 9.93797 47.9221 10.5914 48.2662 11.1499C47.8429 11.3011 47.441 11.5064 47.0703 11.7607C46.5528 10.8744 46.3587 9.83595 46.5213 8.82253C46.6839 7.8091 47.193 6.88346 47.9618 6.20346C48.7306 5.52346 49.7115 5.13122 50.7371 5.09363C51.7628 5.05605 52.7698 5.37545 53.5863 5.99736V5.99792ZM44.5137 6.09861L44.5852 6.12449L45.8902 6.6808C46.244 6.83042 46.4139 7.24049 46.2693 7.59655C46.1343 7.92955 45.7726 8.09717 45.4368 7.99649L45.3659 7.97117L44.0615 7.4143C43.8911 7.34159 43.7559 7.20502 43.6849 7.03385C43.6139 6.86268 43.6128 6.67053 43.6818 6.49855C43.8168 6.16611 44.1785 5.99792 44.5143 6.09861H44.5137ZM48.6588 2.62574L48.6897 2.69099L49.2298 3.98811C49.2989 4.15469 49.3014 4.34147 49.2367 4.50984C49.172 4.6782 49.0451 4.81528 48.8822 4.89271C48.7193 4.97015 48.5329 4.98203 48.3615 4.92589C48.1901 4.86976 48.0468 4.7499 47.9613 4.59111L47.9304 4.52642L47.3904 3.2293C47.3204 3.06259 47.3173 2.87534 47.3818 2.70644C47.4463 2.53753 47.5733 2.39995 47.7366 2.32227C47.8999 2.24459 48.0868 2.23278 48.2585 2.28929C48.4302 2.3458 48.5736 2.46629 48.6588 2.62574ZM53.7483 2.31074C54.0869 2.45136 54.2596 2.82261 54.1589 3.1663L54.1331 3.23942L53.5751 4.51967C53.5044 4.68603 53.373 4.81922 53.2076 4.89216C53.0423 4.96511 52.8553 4.97233 52.6848 4.91237C52.5143 4.8524 52.373 4.72975 52.2897 4.56935C52.2064 4.40895 52.1873 4.22284 52.2363 4.04886L52.2622 3.97574L52.8196 2.69549C52.8918 2.52135 53.0302 2.383 53.2043 2.31085C53.3785 2.2387 53.5741 2.23866 53.7483 2.31074Z" fill="white"/>
</svg>
