<svg width="67" height="31" viewBox="0 0 67 31" fill="none" xmlns="http://www.w3.org/2000/svg">
<circle cx="26.125" cy="11.5" r="2" stroke="white"/>
<path d="M14.8141 13.543C14.8141 14.1816 14.6441 14.75 14.3043 15.248C13.9703 15.7461 13.5162 16.1357 12.942 16.417C13.61 16.7041 14.1373 17.123 14.524 17.6738C14.9166 18.2246 15.1129 18.8486 15.1129 19.5459C15.1129 20.6533 14.7379 21.5352 13.9879 22.1914C13.2438 22.8477 12.2623 23.1758 11.0436 23.1758C9.81309 23.1758 8.82578 22.8477 8.08164 22.1914C7.34336 21.5293 6.97422 20.6475 6.97422 19.5459C6.97422 18.8545 7.16172 18.2305 7.53672 17.6738C7.91758 17.1172 8.44199 16.6953 9.10996 16.4082C8.5416 16.127 8.09336 15.7373 7.76523 15.2393C7.43711 14.7412 7.27305 14.1758 7.27305 13.543C7.27305 12.4648 7.61875 11.6094 8.31016 10.9766C9.00156 10.3438 9.9127 10.0273 11.0436 10.0273C12.1686 10.0273 13.0768 10.3438 13.7682 10.9766C14.4654 11.6094 14.8141 12.4648 14.8141 13.543ZM13.4869 19.5107C13.4869 18.7959 13.2584 18.2129 12.8014 17.7617C12.3502 17.3105 11.7584 17.085 11.026 17.085C10.2936 17.085 9.70469 17.3076 9.25938 17.7529C8.81992 18.1982 8.6002 18.7842 8.6002 19.5107C8.6002 20.2373 8.81406 20.8086 9.2418 21.2246C9.67539 21.6406 10.276 21.8486 11.0436 21.8486C11.8053 21.8486 12.4029 21.6406 12.8365 21.2246C13.2701 20.8027 13.4869 20.2314 13.4869 19.5107ZM11.0436 11.3633C10.4049 11.3633 9.88633 11.5625 9.48789 11.9609C9.09531 12.3535 8.89902 12.8896 8.89902 13.5693C8.89902 14.2197 9.09238 14.7471 9.4791 15.1514C9.87168 15.5498 10.3932 15.749 11.0436 15.749C11.6939 15.749 12.2125 15.5498 12.5992 15.1514C12.9918 14.7471 13.1881 14.2197 13.1881 13.5693C13.1881 12.9189 12.9859 12.3887 12.5816 11.9785C12.1773 11.5684 11.6646 11.3633 11.0436 11.3633ZM33.2605 18.9395C33.1023 20.293 32.6014 21.3389 31.7576 22.0771C30.9197 22.8096 29.8035 23.1758 28.409 23.1758C26.8973 23.1758 25.6844 22.6338 24.7703 21.5498C23.8621 20.4658 23.408 19.0156 23.408 17.1992V15.9688C23.408 14.7793 23.6189 13.7334 24.0408 12.8311C24.4686 11.9287 25.0721 11.2373 25.8514 10.7568C26.6307 10.2705 27.533 10.0273 28.5584 10.0273C29.9178 10.0273 31.0076 10.4082 31.8279 11.1699C32.6482 11.9258 33.1258 12.9746 33.2605 14.3164H31.5643C31.4178 13.2969 31.0984 12.5586 30.6063 12.1016C30.1199 11.6445 29.4373 11.416 28.5584 11.416C27.4803 11.416 26.6336 11.8145 26.0184 12.6113C25.409 13.4082 25.1043 14.542 25.1043 16.0127V17.252C25.1043 18.6406 25.3943 19.7451 25.9744 20.5654C26.5545 21.3857 27.366 21.7959 28.409 21.7959C29.3465 21.7959 30.0643 21.585 30.5623 21.1631C31.0662 20.7354 31.4002 19.9941 31.5643 18.9395H33.2605Z" fill="white"/>
<path d="M52.1634 10.332C56.2561 10.332 58.5779 13.0407 58.915 16.3125H59.0183C61.6527 16.3125 63.7878 18.4424 63.7878 21.069C63.7878 23.6963 61.6527 25.8256 59.0183 25.8256H45.3079C42.6749 25.8256 40.5397 23.6963 40.5397 21.069C40.5397 18.4424 42.6749 16.3125 45.3086 16.3125H45.4119C45.7516 13.0194 48.0714 10.332 52.1641 10.332H52.1634ZM52.1634 11.9434C49.4115 11.9434 47.0129 14.1702 47.0129 17.2457C47.0129 17.7333 46.5886 18.1163 46.1036 18.1163H45.1865C43.5106 18.1163 42.153 19.4809 42.153 21.1646C42.153 22.8489 43.5112 24.2142 45.1865 24.2142H59.1404C60.8157 24.2142 62.1739 22.8489 62.1739 21.1653C62.1739 19.4809 60.8157 18.1156 59.1404 18.1156H58.2233C57.7376 18.1156 57.314 17.7333 57.314 17.2463C57.314 14.1308 54.9153 11.944 52.1634 11.944V11.9434ZM40.997 15.6886C41.0729 15.8723 41.078 16.0777 41.0114 16.265C40.9447 16.4522 40.8109 16.6082 40.636 16.7025L40.5617 16.7381L39.0692 17.3587C38.8786 17.4398 38.664 17.4442 38.4703 17.3708C38.2766 17.2974 38.1188 17.152 38.0298 16.9649C37.9408 16.7779 37.9276 16.5637 37.9929 16.3671C38.0581 16.1705 38.1969 16.0068 38.3801 15.9101L38.4543 15.8746L39.9469 15.2539C40.1437 15.1725 40.3648 15.1725 40.5616 15.254C40.7584 15.3355 40.9148 15.4918 40.9963 15.6886H40.997ZM49.3928 9.46146L49.3528 9.47438C48.7554 9.66942 48.2006 9.92776 47.693 10.2429C46.9994 9.94943 46.2304 9.884 45.4972 10.0561C44.764 10.2282 44.1044 10.6288 43.6138 11.2003C43.1232 11.7717 42.8269 12.4842 42.7677 13.2351C42.7085 13.9859 42.8895 14.7361 43.2845 15.3773C42.7983 15.5509 42.3366 15.7867 41.9108 16.0787C41.3166 15.061 41.0938 13.8687 41.2805 12.7052C41.4671 11.5416 42.0517 10.4788 42.9344 9.69809C43.8171 8.91735 44.9433 8.467 46.1209 8.42385C47.2986 8.3807 48.4547 8.74742 49.3922 9.46146H49.3928ZM38.9762 9.57771L39.0582 9.60742L40.5559 10.2462C40.9628 10.4179 41.1578 10.8888 40.9918 11.2982C40.8368 11.6799 40.4215 11.873 40.036 11.7568L39.9546 11.7277L38.4563 11.089C38.2605 11.0054 38.1054 10.8484 38.024 10.6517C37.9426 10.4551 37.9415 10.2344 38.021 10.0369C38.176 9.65521 38.5906 9.46211 38.9762 9.57836V9.57771ZM43.7347 5.59098L43.7702 5.66526L44.3902 7.15455C44.468 7.34545 44.4698 7.55888 44.3952 7.75107C44.3207 7.94327 44.1755 8.09967 43.9893 8.1882C43.8031 8.27674 43.5902 8.29071 43.394 8.22725C43.1979 8.16378 43.0335 8.02769 42.9345 7.84688L42.899 7.77261L42.279 6.28332C42.2012 6.09241 42.1994 5.87899 42.2739 5.68679C42.3484 5.4946 42.4937 5.3382 42.6798 5.24966C42.866 5.16112 43.079 5.14715 43.2751 5.21062C43.4712 5.27408 43.6357 5.41017 43.7347 5.59098ZM49.5788 5.22932C49.967 5.39013 50.1652 5.81703 50.0503 6.21098L50.0206 6.29494L49.3799 7.76486C49.2987 7.95586 49.1479 8.10878 48.958 8.19253C48.7682 8.27629 48.5535 8.28458 48.3577 8.21573C48.162 8.14688 47.9998 8.00606 47.9041 7.82189C47.8085 7.63773 47.7865 7.42405 47.8428 7.2243L47.8725 7.14034L48.5119 5.67042C48.553 5.5714 48.6132 5.48144 48.689 5.40569C48.7649 5.32993 48.8549 5.26986 48.954 5.22889C49.0531 5.18793 49.1592 5.16689 49.2664 5.16696C49.3737 5.16703 49.4798 5.18822 49.5788 5.22932Z" fill="white"/>
</svg>
