<svg width="71" height="25" viewBox="0 0 71 25" fill="none" xmlns="http://www.w3.org/2000/svg">
<circle cx="26.2227" cy="7.5" r="2" stroke="white"/>
<path d="M4.15039 11.8105H5.37207C6.13965 11.7988 6.74316 11.5967 7.18262 11.2041C7.62207 10.8115 7.8418 10.2812 7.8418 9.61328C7.8418 8.11328 7.09473 7.36328 5.60059 7.36328C4.89746 7.36328 4.33496 7.56543 3.91309 7.96973C3.49707 8.36816 3.28906 8.89844 3.28906 9.56055H1.66309C1.66309 8.54688 2.03223 7.70605 2.77051 7.03809C3.51465 6.36426 4.45801 6.02734 5.60059 6.02734C6.80762 6.02734 7.75391 6.34668 8.43945 6.98535C9.125 7.62402 9.46777 8.51172 9.46777 9.64844C9.46777 10.2051 9.28613 10.7441 8.92285 11.2656C8.56543 11.7871 8.07617 12.1768 7.45508 12.4346C8.1582 12.6572 8.7002 13.0264 9.08105 13.542C9.46777 14.0576 9.66113 14.6875 9.66113 15.4316C9.66113 16.5801 9.28613 17.4912 8.53613 18.165C7.78613 18.8389 6.81055 19.1758 5.60938 19.1758C4.4082 19.1758 3.42969 18.8506 2.67383 18.2002C1.92383 17.5498 1.54883 16.6914 1.54883 15.625H3.18359C3.18359 16.2988 3.40332 16.8379 3.84277 17.2422C4.28223 17.6465 4.87109 17.8486 5.60938 17.8486C6.39453 17.8486 6.99512 17.6436 7.41113 17.2334C7.82715 16.8232 8.03516 16.2344 8.03516 15.4668C8.03516 14.7227 7.80664 14.1514 7.34961 13.7529C6.89258 13.3545 6.2334 13.1494 5.37207 13.1377H4.15039V11.8105ZM21.1783 19H12.7936V17.8311L17.2232 12.9092C17.8795 12.165 18.3307 11.5615 18.5768 11.0986C18.8287 10.6299 18.9547 10.1465 18.9547 9.64844C18.9547 8.98047 18.7525 8.43262 18.3482 8.00488C17.9439 7.57715 17.4049 7.36328 16.7311 7.36328C15.9225 7.36328 15.2926 7.59473 14.8414 8.05762C14.3961 8.51465 14.1734 9.15332 14.1734 9.97363H12.5475C12.5475 8.7959 12.9254 7.84375 13.6812 7.11719C14.443 6.39062 15.4596 6.02734 16.7311 6.02734C17.9205 6.02734 18.8609 6.34082 19.5523 6.96777C20.2437 7.58887 20.5895 8.41797 20.5895 9.45508C20.5895 10.7148 19.7867 12.2148 18.1812 13.9551L14.7535 17.6729H21.1783V19ZM39.0008 14.9395C38.8426 16.293 38.3416 17.3389 37.4979 18.0771C36.66 18.8096 35.5438 19.1758 34.1492 19.1758C32.6375 19.1758 31.4246 18.6338 30.5105 17.5498C29.6023 16.4658 29.1482 15.0156 29.1482 13.1992V11.9688C29.1482 10.7793 29.3592 9.7334 29.7811 8.83105C30.2088 7.92871 30.8123 7.2373 31.5916 6.75684C32.3709 6.27051 33.2732 6.02734 34.2986 6.02734C35.658 6.02734 36.7479 6.4082 37.5682 7.16992C38.3885 7.92578 38.866 8.97461 39.0008 10.3164H37.3045C37.158 9.29688 36.8387 8.55859 36.3465 8.10156C35.8602 7.64453 35.1775 7.41602 34.2986 7.41602C33.2205 7.41602 32.3738 7.81445 31.7586 8.61133C31.1492 9.4082 30.8445 10.542 30.8445 12.0127V13.252C30.8445 14.6406 31.1346 15.7451 31.7146 16.5654C32.2947 17.3857 33.1063 17.7959 34.1492 17.7959C35.0867 17.7959 35.8045 17.585 36.3025 17.1631C36.8064 16.7354 37.1404 15.9941 37.3045 14.9395H39.0008Z" fill="white"/>
<path d="M54.9961 4.71092C56.5842 4.81567 58.1141 5.25593 59.4414 5.99015C60.7686 6.72437 61.8495 7.72833 62.5819 8.90727C63.3143 10.0862 63.6741 11.4012 63.6274 12.7282C63.5807 14.0552 63.1289 15.3504 62.3148 16.4915C61.5007 17.6326 60.3511 18.582 58.9744 19.2501C57.5978 19.9182 56.0396 20.283 54.4468 20.31C52.8541 20.3369 51.2793 20.0252 49.8713 19.4042C48.4632 18.7833 47.2683 17.8736 46.3992 16.7609C49.0299 16.1672 52.6167 14.7265 54.1992 11.2125C55.2342 8.90936 55.2942 6.62186 54.9961 4.71248V4.71092ZM65.5074 12.5C65.5073 11.2413 65.203 9.99544 64.6128 8.83682C64.0225 7.67819 63.1583 6.63049 62.0716 5.75618C60.985 4.88186 59.6983 4.19885 58.2881 3.74787C56.8779 3.29689 55.3731 3.08718 53.8636 3.13123C53.7285 3.13493 53.596 3.16293 53.4751 3.21332C53.3542 3.2637 53.2478 3.33528 53.1632 3.42314C53.0786 3.511 53.0178 3.61307 52.9849 3.72235C52.9521 3.83162 52.948 3.94552 52.973 4.05623C53.4042 5.95311 53.498 8.31873 52.4424 10.6625C50.9424 13.9969 47.1886 15.1 44.798 15.4609C44.6557 15.4824 44.5212 15.531 44.4052 15.6029C44.2892 15.6748 44.1947 15.7682 44.1291 15.8756C44.0636 15.983 44.0288 16.1017 44.0274 16.2222C44.026 16.3427 44.0581 16.4618 44.1211 16.5703C45.2269 18.4842 47.0799 20.0284 49.3765 20.95C51.6731 21.8715 54.2772 22.1159 56.7622 21.6429C59.2473 21.1699 61.4659 20.0077 63.0547 18.3467C64.6435 16.6856 65.5082 14.6242 65.5074 12.5Z" fill="white"/>
</svg>
