<svg width="77" height="31" viewBox="0 0 77 31" fill="none" xmlns="http://www.w3.org/2000/svg">
<circle cx="25.625" cy="10.5" r="2" stroke="white"/>
<path d="M60.3743 3.875C64.731 3.875 67.2026 6.58427 67.5621 9.85542H67.6721C70.4757 9.85542 72.7486 11.9854 72.7486 14.612C72.7486 17.2392 70.4757 19.3685 67.6721 19.3685L66.4876 19.3692L66.4848 19.375H66.0819L64.7269 21.5579C64.67 21.6495 64.5945 21.7297 64.5046 21.7939C64.4147 21.858 64.3123 21.905 64.2031 21.932C64.094 21.9589 63.9802 21.9655 63.8684 21.9512C63.7565 21.9368 63.6488 21.902 63.5513 21.8485C63.4537 21.7951 63.3684 21.7242 63.3001 21.6397C63.2318 21.5553 63.1818 21.4591 63.1531 21.3565C63.1244 21.254 63.1174 21.1471 63.1326 21.0421C63.1479 20.937 63.185 20.8358 63.2419 20.7442L64.0964 19.3685L61.1684 19.3692L61.1663 19.375H60.5819L59.2269 21.5579C59.17 21.6495 59.0945 21.7297 59.0046 21.7939C58.9147 21.858 58.8123 21.905 58.7031 21.932C58.594 21.9589 58.4802 21.9655 58.3684 21.9512C58.2565 21.9368 58.1488 21.902 58.0513 21.8485C57.9537 21.7951 57.8684 21.7242 57.8001 21.6397C57.7318 21.5553 57.6818 21.4591 57.6531 21.3565C57.6244 21.254 57.6174 21.1471 57.6326 21.0421C57.6479 20.937 57.685 20.8358 57.7419 20.7442L58.5964 19.3685L55.8499 19.3692L55.8478 19.375H55.0826L53.7269 21.5579C53.67 21.6495 53.5945 21.7297 53.5046 21.7939C53.4147 21.858 53.3123 21.905 53.2031 21.932C53.094 21.9589 52.9802 21.9655 52.8684 21.9512C52.7565 21.9368 52.6488 21.902 52.5512 21.8485C52.4537 21.7951 52.3684 21.7242 52.3001 21.6397C52.2318 21.5553 52.1818 21.4591 52.1531 21.3565C52.1244 21.254 52.1174 21.1471 52.1326 21.0421C52.1479 20.937 52.185 20.8358 52.2419 20.7442L53.0964 19.3685H53.0765C50.2729 19.3685 48 17.2392 48 14.612C48 11.9854 50.2729 9.85542 53.0765 9.85542H53.1865C53.5481 6.56231 56.0176 3.875 60.375 3.875H60.3743ZM60.3743 5.48635C57.4449 5.48635 54.8915 7.71319 54.8915 10.7886C54.8915 11.2762 54.4405 11.6592 53.9235 11.6592H52.9472C51.1639 11.6592 49.7181 13.0239 49.7181 14.7076C49.7181 16.3919 51.1639 17.7572 52.9472 17.7572H67.8014C69.5847 17.7572 71.0306 16.3919 71.0306 14.7082C71.0306 13.0239 69.5847 11.6586 67.8014 11.6586H66.8251C66.3081 11.6586 65.8571 11.2762 65.8571 10.7893C65.8571 7.67379 63.3038 5.487 60.3743 5.487V5.48635Z" fill="white"/>
<path d="M55.9956 22.391C56.0931 22.4445 56.1785 22.5154 56.2468 22.5998C56.3152 22.6842 56.3651 22.7805 56.3939 22.883C56.4226 22.9856 56.4295 23.0925 56.4143 23.1975C56.399 23.3026 56.3619 23.4038 56.305 23.4954L55.1019 25.4329C55.045 25.5245 54.9695 25.6047 54.8796 25.6689C54.7897 25.7331 54.6873 25.78 54.5781 25.807C54.469 25.8339 54.3552 25.8405 54.2434 25.8262C54.1315 25.8118 54.0237 25.777 53.9262 25.7236C53.8287 25.6701 53.7434 25.5992 53.6751 25.5148C53.6068 25.4303 53.5568 25.3341 53.5281 25.2316C53.4993 25.129 53.4924 25.0221 53.5076 24.9171C53.5229 24.812 53.56 24.7108 53.6169 24.6192L54.82 22.6817C54.8768 22.5901 54.9524 22.5099 55.0422 22.4457C55.1321 22.3815 55.2345 22.3345 55.3437 22.3076C55.4529 22.2806 55.5666 22.274 55.6785 22.2884C55.7904 22.3027 55.8981 22.3376 55.9956 22.391Z" fill="white"/>
<path d="M61.805 23.4954C61.8619 23.4038 61.899 23.3026 61.9142 23.1975C61.9295 23.0924 61.9225 22.9856 61.8938 22.883C61.8651 22.7805 61.8151 22.6843 61.7468 22.5998C61.6785 22.5154 61.5931 22.4445 61.4956 22.391C61.3981 22.3376 61.2904 22.3027 61.1785 22.2884C61.0667 22.2741 60.9529 22.2806 60.8437 22.3076C60.7346 22.3346 60.6321 22.3815 60.5423 22.4457C60.4524 22.5099 60.3769 22.5901 60.32 22.6817L59.1169 24.6192C59.06 24.7108 59.0229 24.812 59.0076 24.9171C58.9924 25.0221 58.9993 25.129 59.0281 25.2315C59.0568 25.3341 59.1068 25.4303 59.1751 25.5147C59.2434 25.5992 59.3287 25.6701 59.4262 25.7235C59.5237 25.777 59.6315 25.8118 59.7434 25.8261C59.8552 25.8405 59.969 25.8339 60.0781 25.8069C60.1873 25.78 60.2897 25.733 60.3796 25.6689C60.4695 25.6047 60.545 25.5245 60.6019 25.4329L61.805 23.4954Z" fill="white"/>
<path d="M6.53223 22H4.89746V11.1631L1.61914 12.3672V10.8906L6.27734 9.1416H6.53223V22ZM20.4576 10.1172L15.1578 22H13.4527L18.735 10.5391H11.8092V9.20312H20.4576V10.1172ZM38.4031 17.9395C38.2449 19.293 37.7439 20.3389 36.9002 21.0771C36.0623 21.8096 34.9461 22.1758 33.5516 22.1758C32.0398 22.1758 30.827 21.6338 29.9129 20.5498C29.0047 19.4658 28.5506 18.0156 28.5506 16.1992V14.9688C28.5506 13.7793 28.7615 12.7334 29.1834 11.8311C29.6111 10.9287 30.2146 10.2373 30.9939 9.75684C31.7732 9.27051 32.6756 9.02734 33.701 9.02734C35.0604 9.02734 36.1502 9.4082 36.9705 10.1699C37.7908 10.9258 38.2684 11.9746 38.4031 13.3164H36.7068C36.5604 12.2969 36.241 11.5586 35.7488 11.1016C35.2625 10.6445 34.5799 10.416 33.701 10.416C32.6229 10.416 31.7762 10.8145 31.1609 11.6113C30.5516 12.4082 30.2469 13.542 30.2469 15.0127V16.252C30.2469 17.6406 30.5369 18.7451 31.117 19.5654C31.6971 20.3857 32.5086 20.7959 33.5516 20.7959C34.4891 20.7959 35.2068 20.585 35.7049 20.1631C36.2088 19.7354 36.5428 18.9941 36.7068 17.9395H38.4031Z" fill="white"/>
</svg>
